<svg width="589" height="592" viewBox="0 0 589 592" fill="none" xmlns="http://www.w3.org/2000/svg">
<path d="M294.239 592C456.743 592 588.479 459.476 588.479 296C588.479 132.524 456.743 0 294.239 0C131.735 0 0 132.524 0 296C0 459.476 131.735 592 294.239 592Z" fill="#253512"/>
<path d="M277.748 114.334C281.565 111.644 287.733 108.265 295.246 108.505C299.871 108.658 306.881 110.233 322.465 126.003C334.658 138.338 335.282 142.33 354.54 164.89C363.901 175.848 367.575 179.38 371.064 182.388C381.989 191.803 384.919 190.775 387.588 195.992C392.815 206.217 383.148 213.183 385.641 230.986C387.096 241.354 390.562 240.413 392.443 251.404C393.11 255.308 396.621 275.812 385.641 287.372C378.467 294.917 372.19 291.221 353.566 300.976C345.036 305.449 339.973 309.571 337.042 311.671C308.139 332.383 229.095 341.22 210.668 311.671C205.255 302.999 207.704 295.245 198.999 288.345C189.791 281.051 181.929 285.655 168.86 277.65C165.919 275.845 152.905 267.873 153.31 258.206C153.67 249.457 164.639 248.921 168.86 236.815C172.174 227.323 166.443 224.742 167.887 210.569C168.751 202.039 172.032 195.161 178.582 181.403C185.898 166.05 188.763 164.814 190.251 156.131C192.219 144.593 188.031 141.663 191.224 135.714C195.609 127.534 205.233 129.885 223.299 123.072C245.356 114.771 247.915 104.907 260.24 105.574C266.506 105.913 266.966 100.249 277.737 114.323L277.748 114.334Z" fill="#EAB764"/>
<path d="M418.219 267.797C422.166 295.103 371.851 321.776 353.577 331.465C331.049 343.407 319.785 349.378 309.353 347.016C268.474 337.775 265.981 243.902 264.155 174.962C264.045 170.741 263.51 140.263 276.797 132.673C278.448 131.722 283.599 128.737 288.946 130.246C293.375 131.492 293.507 134.554 298.668 137.048C305.612 140.405 308.871 136.545 314.219 139.968C318.101 142.45 320.999 147.426 321.513 152.117C321.951 156.185 320.387 158.165 321.994 161.347C323.46 164.245 325.384 163.884 327.342 166.695C330.076 170.621 327.867 173.584 329.289 178.363C329.671 179.643 330.787 182.661 340.957 190.032C352.057 198.07 353.085 196.189 356.027 199.754C362.643 207.77 355.48 214.878 361.374 226.973C364.917 234.234 372.069 241.026 380.326 242.524C386.111 243.574 387.948 241.212 392.968 241.551C404.363 242.316 416.535 255.942 418.241 267.797H418.219Z" fill="#B08A5A"/>
<path d="M153.32 277.037C154.654 274.599 159.029 275.758 168.871 269.743C173.322 267.031 177.794 264.22 181.021 259.048C183.908 254.422 183 252.366 185.395 244.47C188.326 234.825 193.444 225.508 195.117 226C196.582 226.426 194.165 234.049 195.117 246.898C195.773 255.844 196.287 261.662 200.464 266.342C206.796 273.439 217.656 273.538 217.962 272.663C218.246 271.865 209.705 270.749 204.839 263.433C201.963 259.103 201.514 254.334 200.946 248.364C200.289 241.343 199.918 237.461 201.427 236.695C205.462 234.65 222.741 255.078 233.02 278.011C240.205 294.042 253.602 332.766 241.288 341.679C221.789 355.808 146.988 288.531 153.32 277.037Z" fill="#63472B"/>
<path d="M307.734 351.948C304.29 358.739 301.774 363.802 299.97 370.998C299.773 371.807 299.609 372.496 299.478 373.098C295.771 374.858 292.774 376.444 290.598 377.647C285.152 380.632 282.483 382.513 277.836 383.727C275.867 384.23 274.052 384.493 272.455 384.624C270.137 379.298 267.829 375.307 265.774 373.885C265.227 373.491 263.269 372.124 261.727 372.277C261.563 372.288 261.41 372.332 261.257 372.398H261.17L252.541 374.366C249.643 371.938 246.45 369.478 242.961 367.061C240.632 365.442 238.347 363.988 236.127 362.643C236.411 362.03 236.542 361.517 236.586 361.123C236.815 359.209 235.995 356.967 226.536 347.376C224.392 345.189 223.299 344.096 222.993 343.855C222.227 343.276 221.451 342.751 220.652 342.324C220.904 342.051 221.155 341.788 221.374 341.526C221.516 341.373 221.658 341.22 221.79 341.056C221.899 340.957 221.987 340.848 222.063 340.749C222.151 340.64 222.238 340.542 222.315 340.432C222.5 340.224 222.665 340.017 222.829 339.809C223.168 339.393 223.485 338.978 223.791 338.573C223.999 338.289 224.217 337.983 224.403 337.687C225.016 336.791 225.563 335.916 226.033 335.074C226.186 334.811 226.328 334.549 226.459 334.297C226.459 334.275 226.459 334.253 226.481 334.253C226.634 333.98 226.765 333.707 226.897 333.433C227.673 331.837 228.209 330.415 228.592 329.201C228.81 328.468 229.128 327.419 229.357 325.57C229.445 324.816 229.521 323.908 229.565 322.847C229.598 322.213 229.62 321.513 229.62 320.748C229.674 317.106 229.423 311.944 228.592 304.585C228.329 302.244 228.012 299.696 227.618 296.984C231.315 300.713 236.717 302.54 244.963 309.921C254.75 318.703 252.421 320.879 259.453 325.472C270.104 332.438 274.883 327.058 285.6 333.575C295.267 339.459 294.633 345.824 304.191 350.428C304.88 350.756 306.127 351.346 307.723 351.948H307.734Z" fill="#D8AD8F"/>
<path d="M318.703 330.098C317.926 331.859 317.434 333.401 316.975 334.702C314.985 340.41 313.946 340.378 310.053 347.475C309.451 348.579 308.762 349.87 307.997 351.401C307.898 351.587 307.811 351.762 307.723 351.948C306.127 351.346 304.88 350.756 304.191 350.428C294.633 345.824 295.267 339.459 285.6 333.575C274.883 327.058 270.104 332.438 259.453 325.472C252.41 320.879 254.739 318.703 244.963 309.921C236.717 302.54 231.315 300.713 227.618 296.984C227.214 294.163 226.733 291.155 226.175 287.984C228.056 288.979 230.352 290.04 233.174 291.134C234.136 291.483 235.252 291.921 236.498 292.38C237.111 292.621 237.778 292.84 238.456 293.08C238.97 293.255 239.484 293.452 240.02 293.616C240.293 293.714 240.566 293.802 240.851 293.889C241.124 293.988 241.408 294.075 241.693 294.163C242.272 294.338 242.852 294.535 243.453 294.699C245.356 295.267 247.412 295.814 249.599 296.317C249.84 296.361 250.102 296.416 250.354 296.47C250.518 296.525 250.682 296.547 250.857 296.591C251.207 296.667 251.568 296.733 251.94 296.798C252.486 296.908 253.044 297.017 253.613 297.115C259.638 298.176 266.451 298.712 273.658 297.968C280.701 297.269 288.104 295.366 295.541 291.604C300.954 288.881 310.523 284.058 317.314 274.347C316.702 282.79 316.363 289.963 316.188 295.508C316.013 300.713 315.969 305.044 315.991 308.686C316.034 314.022 316.253 317.861 316.57 320.748C316.975 324.302 317.533 326.434 318.069 328.228C318.265 328.862 318.473 329.485 318.681 330.098H318.703Z" fill="url(#paint0_linear_316_198)"/>
<path d="M459.075 471.039C453.137 469.748 445.985 468.338 439.905 467.605C437.116 467.266 432.501 466.828 431.407 468.895C430.981 469.694 431.222 470.569 431.32 470.962C432.359 475.052 431.178 479.394 431.32 483.604C431.768 497.154 418.689 527.347 418.689 527.347C414.304 537.452 409.066 551.658 404.997 570.227C373.962 582.879 340.29 590.403 305.044 591.759C314.427 581.622 324.247 569.713 333.794 555.693C357.558 520.775 380.129 481.821 380.129 481.821C388.955 466.588 402.92 441.72 419.006 442.617C423.949 442.89 429.953 445.646 431.812 446.543C441.326 451.168 446.018 457.774 450.523 462.946C452.973 465.768 455.707 468.327 459.075 471.039Z" fill="#B0ABA7"/>
<path d="M238.379 422.834C238.193 423.282 237.843 424.168 237.275 425.185C236.17 427.186 234.257 429.712 231.249 430.609C226.055 432.173 220.838 427.875 214.725 422.681C214.725 422.681 200.968 410.979 191.399 388.648C191.399 388.648 189.682 384.668 189.124 379.09C189.037 378.216 188.993 377.472 189.004 376.827C189.004 375.416 189.212 374.465 189.616 373.59C190.12 372.452 190.852 371.632 191.661 370.976C192.536 370.243 193.499 369.707 194.395 369.128C194.395 369.128 200.76 365.016 211.401 348.722C211.433 348.667 211.51 348.568 211.63 348.448C212.888 347.333 216.037 349.279 219.34 350.865C226.23 354.179 227.312 352.833 230.035 355.436C232.277 357.601 233.272 360.171 233.841 361.681C234.432 363.19 234.563 364.119 234.683 365.082C234.814 366.186 234.913 367.323 235.624 369.456C236.892 373.251 238.182 374.399 237.494 375.93C236.925 377.177 235.449 377.866 234.125 378.051C233.885 378.095 233.655 378.117 233.436 378.117C229.795 378.194 227.356 374.06 226.558 372.693C224.906 369.904 224.666 366.394 224.677 364.382C223.649 365.016 222.435 365.289 221.21 365.082C219.778 364.841 218.542 363.966 217.765 362.774C217.492 364.065 216.814 365.76 215.217 367.105C214.747 367.498 214.255 367.816 213.763 368.056C213.26 368.308 212.757 368.483 212.265 368.614C212.571 370.232 212.975 372.562 213.271 374.88C213.38 375.755 213.533 377.023 213.183 378.609C213.15 378.751 213.129 378.883 213.085 379.003C212.975 379.451 212.844 379.845 212.724 380.14C213.139 380.381 213.566 380.676 213.992 381.037C216.803 383.399 217.437 386.822 217.722 388.003C218.476 391.098 220.882 395.494 228.417 400.885C233.021 404.177 233.305 403.302 235.459 405.828C238.97 409.908 240.851 416.731 238.379 422.834Z" fill="#D8AD8F"/>
<path d="M329.267 226.973C329.026 231.533 328.807 235.634 328.567 239.352C328.173 245.739 327.747 250.988 327.101 255.417C326.248 261.399 325.002 265.905 322.946 269.743C322.06 271.394 321.098 272.925 320.059 274.358C313.082 284.069 303.239 288.892 297.673 291.615C282.177 299.215 266.79 299.226 254.553 297.126C261.836 296.82 272.51 295.661 279.367 288.05C281.652 285.523 282.21 283.719 283.227 280.766C282.188 281.28 281.138 281.554 280.176 281.532C277.956 281.477 277.671 279.87 274.106 277.518C265.806 272.072 255.417 272.925 252.716 273.144C246.133 273.691 242.524 275.736 241.299 273.997C240.326 272.619 241.365 269.59 243.245 268.529C245.017 267.523 246.603 268.846 250.048 269.262C251.13 269.393 252.257 269.415 259.649 267.807C266.353 266.342 269.71 265.609 270.946 265.008C276.589 262.285 276.676 259.059 280.427 258.928C284.867 258.785 288.946 261.399 290.51 264.888C290.609 265.095 290.696 265.314 290.762 265.533C293.091 262.285 296.612 258.118 304.639 247.554C304.639 247.554 316.067 232.517 322.793 214.255C323.175 213.194 324.433 209.694 323.11 208.59C320.737 206.578 314.077 215.753 302.944 216.201C299.018 216.365 295.114 215.414 289.657 214.091C285.403 213.063 284.189 212.407 279.607 211.586C275.626 210.875 275.003 211.094 273.778 210.285C270.17 207.901 269.36 201.799 270.541 197.326C270.782 196.418 272.4 190.294 277.42 188.337C281.062 186.926 284.32 188.534 304.639 196.998C307.832 198.332 311.168 199.666 314.361 198.299C317.828 196.812 319.249 192.952 319.873 191.169C323.853 179.84 316.723 167.274 314.361 162.659C307.756 149.722 297.575 143.292 294.272 141.269C289.537 138.36 284.791 136.468 280.941 135.178C282.691 135.506 284.386 135.812 286.016 136.085C293.244 137.31 300.429 139.301 307.395 144.353C318.178 152.15 322.508 162.966 324.892 169.133C329.125 180.08 329.343 189.244 329.759 206.075C329.945 214.102 329.649 219.898 329.267 226.973Z" fill="url(#paint1_linear_316_198)"/>
<path d="M240.161 153.419C237.034 159.28 238.762 165.864 239.997 170.599C242.688 180.857 248.21 182.289 253.12 195.544C254.826 200.137 256.007 203.428 255.876 208.021C255.658 215.644 251.863 225.715 246.154 226.656C240.599 227.564 238.051 218.99 227.684 217.098C224.731 216.551 221.516 215.906 218.29 217.415C216.496 218.257 209.333 219.121 204.718 235.623C202.334 220.937 202.509 221.111 201.438 208.021C199.579 185.111 202.717 161.916 215.534 146.781C229.51 130.268 249.479 130.246 267.25 132.816C266.178 133.833 264.144 135.396 260.415 138.032C246.187 148.093 242.6 148.858 240.161 153.419Z" fill="url(#paint2_linear_316_198)"/>
<path d="M322.793 214.255C316.067 232.518 304.639 247.554 304.639 247.554C296.612 258.118 293.091 262.285 290.762 265.533C290.696 265.314 290.609 265.095 290.51 264.888C288.946 261.399 284.867 258.785 280.427 258.928C276.676 259.059 276.589 262.285 270.946 265.008C269.71 265.609 266.353 266.342 259.649 267.807C252.257 269.415 251.13 269.393 250.048 269.262C246.603 268.846 245.017 267.523 243.246 268.529C241.365 269.59 240.326 272.619 241.299 273.997C242.524 275.736 246.133 273.691 252.716 273.144C255.417 272.925 265.806 272.072 274.107 277.518C277.672 279.87 277.956 281.477 280.176 281.532C281.138 281.554 282.188 281.28 283.227 280.766C282.21 283.719 281.652 285.523 279.367 288.05C272.51 295.661 261.837 296.82 254.553 297.126H254.542C245.291 295.541 237.854 292.752 233.524 291.134C230.626 290.051 228.264 288.99 226.328 287.995C222.14 285.808 219.92 283.861 218.454 282.385C210.405 274.26 209.399 264.308 207.278 251.272C206.195 244.613 205.364 239.571 204.719 235.623C209.334 219.121 216.497 218.257 218.29 217.415C221.516 215.906 224.731 216.551 227.684 217.098C238.051 218.99 240.599 227.564 246.155 226.656C251.863 225.715 255.658 215.644 255.877 208.021C256.008 203.428 254.827 200.137 253.121 195.544C248.211 182.289 242.688 180.857 239.998 170.599C238.762 165.864 237.034 159.28 240.162 153.419C242.6 148.858 246.187 148.093 260.415 138.032C264.144 135.396 266.178 133.833 267.25 132.816H267.261C272.029 133.505 276.633 134.379 280.92 135.167C280.931 135.167 280.941 135.167 280.941 135.178C284.791 136.468 289.537 138.36 294.272 141.269C297.575 143.292 307.756 149.722 314.361 162.659C316.723 167.274 323.854 179.84 319.873 191.169C319.25 192.952 317.828 196.812 314.361 198.299C311.168 199.666 307.833 198.332 304.639 196.998C284.321 188.534 281.062 186.926 277.42 188.337C272.401 190.294 270.782 196.418 270.541 197.326C269.36 201.799 270.17 207.901 273.778 210.285C275.003 211.094 275.627 210.876 279.607 211.586C284.189 212.407 285.403 213.063 289.657 214.091C295.114 215.414 299.018 216.365 302.944 216.201C314.077 215.753 320.737 206.578 323.11 208.59C324.433 209.694 323.176 213.194 322.793 214.255Z" fill="#D8AD8F"/>
<path d="M284.047 205.233C283.97 205.189 283.883 205.145 283.795 205.101" stroke="#231F20" stroke-miterlimit="10"/>
<path d="M263.98 240.413C263.969 239.768 264.012 237.974 265.281 236.684C267.031 234.902 270.497 234.77 273.384 236.848" stroke="#7C583E" stroke-miterlimit="10" stroke-linecap="round"/>
<path d="M278.885 229.073C279.29 229.598 281.849 233.042 280.668 236.203C280.001 237.996 278.328 239.156 276.294 240.577C275.08 241.419 273.986 241.999 273.221 242.36" stroke="#7C583E" stroke-miterlimit="10" stroke-linecap="round"/>
<path d="M241.485 257.67L241.354 257.407" stroke="#231F20" stroke-miterlimit="10"/>
<path d="M336.058 250.223C335.85 252.672 334.221 254.827 331.859 255.647C330.273 256.205 328.567 256.084 327.102 255.417C327.747 250.988 328.173 245.739 328.567 239.352C329.617 241.157 330.809 243.038 332.187 244.963C333.477 246.767 334.757 248.549 336.058 250.223Z" fill="#8E6649"/>
<path d="M248.101 415.069C247.959 416.928 247.675 418.547 244.941 427.711C244.733 428.411 244.536 429.067 244.35 429.69C242.874 429.439 241.441 428.87 240.162 428.028C238.915 427.197 237.974 426.213 237.275 425.196C237.843 424.179 238.193 423.293 238.379 422.845C240.851 416.742 238.97 409.918 235.459 405.839C233.305 403.313 233.021 404.188 228.417 400.896C220.882 395.505 218.476 391.109 217.721 388.014C217.437 386.833 216.803 383.41 213.992 381.048C213.566 380.687 213.139 380.392 212.724 380.151C212.844 379.856 212.975 379.462 213.085 379.014C213.675 379.604 214.397 380.162 215.294 380.567C216.147 380.949 216.956 381.114 217.699 381.179C217.087 380.075 216.486 378.85 215.939 377.483C214.528 373.972 213.97 370.703 213.763 368.067C214.255 367.826 214.747 367.509 215.217 367.116C216.814 365.771 217.492 364.075 217.765 362.785C218.541 363.977 219.777 364.852 221.21 365.093C222.435 365.3 223.649 365.027 224.676 364.393C224.666 366.405 224.906 369.915 226.557 372.704C227.356 374.071 229.794 378.205 233.436 378.128C233.655 378.128 233.884 378.106 234.125 378.062C234.442 378.751 234.781 379.484 235.164 380.282C235.164 380.282 235.175 380.282 235.175 380.293C235.776 381.562 236.465 382.951 237.242 384.449C241.955 393.504 243.639 394.324 245.673 399.759C246.57 402.165 248.637 407.873 248.101 415.069Z" fill="url(#paint3_linear_316_198)"/>
<path d="M280.668 464.959C282.024 448.883 283.118 435.946 287.153 423.643C284.452 414.085 280.373 400.557 276.152 389.928C275.408 388.047 274.664 386.275 273.921 384.624C273.746 384.241 273.582 383.869 273.407 383.508C273.385 383.443 273.352 383.388 273.33 383.333C271.143 378.653 268.989 375.186 267.053 373.885C266.495 373.491 264.472 372.124 262.897 372.277L262.416 372.398H262.329C262.241 372.452 262.154 372.485 262.077 372.529C260.229 373.622 261.694 377.275 259.037 381.54C258.162 382.929 256.697 384.624 255.997 384.318C252.814 384.799 248.921 384.832 243.486 383.465C238.97 382.327 237.559 381.748 235.175 380.282C235.776 381.551 236.465 382.94 237.242 384.438C241.955 393.504 243.639 394.324 245.673 399.748C246.57 402.154 248.637 407.873 248.101 415.058C247.959 416.917 247.675 418.536 244.941 427.7C244.733 428.4 244.536 429.056 244.35 429.68C242.907 434.491 242.054 437.324 240.807 441.075C238.292 448.675 236.695 455.04 233.524 467.802C227.728 491.04 223.266 514.979 219.187 532.684C216.497 544.309 212.472 559.761 206.348 578.046C229.171 585.318 253.186 589.9 278.032 591.42C278.262 590.097 278.503 588.785 278.721 587.44C282.8 562.922 282.713 543.97 282.615 521.016C282.451 487.388 278.787 487.235 280.668 464.959ZM266.9 385.422C265.795 387.555 263.477 388.528 261.694 387.598C260.47 386.975 259.956 385.488 259.901 384.427C259.835 383.268 260.295 382.393 260.47 382.098C261.388 380.523 263.761 378.926 265.664 379.911C267.447 380.829 267.993 383.29 266.9 385.422Z" fill="#D4D5D8"/>
<path d="M262.328 372.42C262.241 372.452 262.153 372.496 262.077 372.54C260.229 373.633 261.694 377.286 259.037 381.54C258.162 382.94 256.696 384.624 255.997 384.329C255.69 384.197 255.494 383.673 255.636 381.048C255.69 379.867 255.822 378.347 256.095 376.553C255.242 375.832 254.367 375.099 253.459 374.366L262.328 372.42Z" fill="#E2E3E8"/>
<path d="M159.751 558.646C152.227 554.731 144.889 550.488 137.759 545.96C141.291 541.334 145.818 535.604 148.793 532.531C149.198 532.104 149.974 531.317 151.221 530.584C152.949 529.578 154.764 529.141 156.492 529.042C154.152 532.137 152.533 534.095 151.385 535.123C151.221 535.265 150.663 535.757 150.247 536.577C148.454 540.142 151.735 545.129 153.003 547.108C154.895 550.083 157.137 553.932 159.751 558.646Z" fill="#E2E3E8"/>
<path d="M195.609 454.438C185.668 480.094 178.79 497.821 168.882 511.797C163.359 519.561 159.379 525.182 156.491 529.032C154.764 529.141 152.948 529.578 151.22 530.584C149.974 531.317 149.197 532.104 148.793 532.531C145.818 535.604 141.291 541.334 137.758 545.96C124.209 537.343 111.414 527.665 99.483 517.024C97.8317 498.761 95.8632 472.909 95.3274 443.262C95.0977 430.467 95.1743 419.367 98.7394 408.803C99.8329 405.566 101.255 402.362 103.103 399.19C104.765 396.336 108.964 389.272 117.035 383.323C124.592 377.734 131.35 376.236 137.769 374.246C146.07 371.676 157.399 367.181 170.555 358.739C170.599 359.154 170.653 359.515 170.697 359.789C171.145 362.676 172.447 364.644 174.711 367.684C178.265 372.452 180.747 375.788 182.552 377.669C182.541 378.412 182.628 379.178 182.847 379.954C183.066 380.731 183.339 381.289 183.459 381.54C186.991 388.725 190.141 396.096 193.903 403.16C195.423 406.014 201.066 416.6 201.93 427.952C202.477 435.235 200.902 440.779 195.609 454.438Z" fill="#D4D5D8"/>
<path d="M229.882 320.759C229.882 321.524 229.86 322.213 229.828 322.847C222.566 325.33 218.651 326.183 216.387 326.369C215.786 326.423 214.124 326.522 212.866 327.703C212.418 328.129 212.101 328.611 211.882 329.092C211.466 329.989 211.357 330.896 211.28 331.476C210.996 333.772 210.581 336.408 210.034 339.546C209.454 339.492 208.864 339.437 208.24 339.393C208.809 336.069 209.137 333.368 209.345 331.356C209.465 330.109 209.542 329.092 210.132 327.933C210.143 327.9 210.165 327.856 210.187 327.823C211.598 325.231 214.463 324.236 217.12 323.449C220.106 322.574 224.382 321.502 229.882 320.759Z" fill="white"/>
<path d="M244.35 429.69C242.907 434.502 242.054 437.324 240.807 441.075C238.292 448.675 236.695 455.051 233.524 467.802C227.728 491.04 223.266 514.99 219.187 532.695C216.497 544.32 212.472 559.772 206.348 578.046C190.163 572.895 174.591 566.388 159.751 558.646C157.137 553.932 154.895 550.083 153.003 547.108C151.735 545.129 148.454 540.142 150.247 536.577C150.663 535.757 151.221 535.265 151.385 535.123C152.533 534.095 154.152 532.137 156.492 529.042C159.379 525.182 163.36 519.561 168.882 511.797C178.79 497.821 185.669 480.094 195.609 454.438C200.902 440.779 202.477 435.235 201.93 427.952C201.066 416.6 195.423 406.014 193.903 403.16C190.141 396.096 186.992 388.725 183.46 381.54C183.339 381.288 183.066 380.731 182.847 379.954C182.628 379.178 182.541 378.412 182.552 377.669C182.585 374.366 184.498 371.413 185.767 368.898C186.992 366.47 187.801 363.157 188.906 357.492C189.223 355.852 189.562 354.015 189.955 351.948C191.421 344.194 191.093 342.029 193.302 340.224C193.881 339.754 195.358 338.704 203.625 339.131C205.266 339.218 206.797 339.295 208.229 339.393H208.24C208.863 339.437 209.454 339.492 210.034 339.546C214.2 339.929 217.568 340.618 220.663 342.324C221.483 342.762 222.282 343.276 223.069 343.866C223.386 344.107 224.502 345.2 226.711 347.387C236.433 356.978 237.286 359.209 237.045 361.123C237.001 361.517 236.87 362.041 236.575 362.654C236.247 363.365 235.667 364.196 234.683 365.093C234.563 364.13 234.431 363.201 233.841 361.691C233.272 360.182 232.277 357.612 230.035 355.447C227.312 352.844 226.23 354.19 219.34 350.876C216.037 349.29 212.888 347.344 211.63 348.459C211.51 348.579 211.433 348.678 211.401 348.733C200.76 365.027 194.395 369.139 194.395 369.139C193.499 369.718 192.536 370.254 191.661 370.976C190.852 371.643 190.119 372.463 189.616 373.601C189.212 374.475 189.004 375.427 189.004 376.838C188.993 377.483 189.037 378.226 189.124 379.101C189.682 384.679 191.399 388.659 191.399 388.659C200.968 410.99 214.725 422.691 214.725 422.691C220.838 427.886 226.055 432.184 231.249 430.62C234.256 429.723 236.17 427.197 237.275 425.196C237.975 426.213 238.915 427.197 240.162 428.028C241.441 428.87 242.874 429.439 244.35 429.69Z" fill="url(#paint4_linear_316_198)"/>
<path d="M188.905 357.492C187.801 363.157 186.992 366.47 185.767 368.898C184.498 371.413 182.584 374.366 182.552 377.669C180.747 375.788 178.265 372.452 174.711 367.684C172.447 364.644 171.146 362.676 170.697 359.789C170.653 359.515 170.599 359.154 170.555 358.739C170.347 356.869 170.314 353.829 172.403 351.641C175.356 348.536 181.042 348.722 183.58 351.04C185.001 352.341 184.662 353.621 186.74 355.775C187.549 356.617 188.271 357.12 188.905 357.492Z" fill="#AE886D"/>
<path d="M210.132 327.933C209.541 329.092 209.465 330.109 209.344 331.355C209.137 333.368 208.809 336.069 208.24 339.393H208.229C206.796 339.295 205.265 339.218 203.625 339.131C195.357 338.704 193.881 339.754 193.302 340.224C191.092 342.029 191.421 344.194 189.955 351.948C189.561 354.015 189.222 355.852 188.905 357.492C188.271 357.12 187.549 356.617 186.74 355.775C184.662 353.621 185.001 352.341 183.58 351.04C181.042 348.722 175.356 348.536 172.403 351.641C170.314 353.829 170.347 356.869 170.555 358.739C157.399 367.181 146.07 371.676 137.769 374.246C131.35 376.236 124.592 377.734 117.035 383.323C108.964 389.272 104.765 396.336 103.103 399.19C101.255 402.362 99.833 405.566 98.7394 408.803C96.3007 399.573 95.4149 387.762 100.828 376.192C109.063 358.597 128.386 348.951 132.914 348.361C133.242 348.317 134.434 348.208 135.582 347.387C138.557 345.288 138.087 340.717 138.502 338.398C140.208 328.797 162.911 324.925 173.005 323.208C183.066 321.502 190.349 320.343 199.502 323.088C203.8 324.378 207.365 326.194 210.132 327.933Z" fill="#11151B"/>
<path d="M301.72 373.098C301.217 375.46 301.195 376.63 300.637 379.44C297.662 380.829 295.224 382.098 293.354 383.093C287.755 386.078 285.021 387.948 280.231 389.162C278.787 389.545 277.42 389.775 276.163 389.928C275.419 388.047 274.675 386.275 273.932 384.624C275.572 384.493 277.442 384.23 279.465 383.727C284.244 382.513 286.989 380.632 292.588 377.647C294.83 376.444 297.903 374.858 301.72 373.098Z" fill="#CB964F"/>
<path d="M300.626 379.44C300.462 380.293 300.243 381.278 299.948 382.502C298.089 390.223 296.055 395.024 294.6 399.037C293.036 403.313 291.276 409.065 289.909 416.392V416.414C288.848 418.809 287.94 421.215 287.153 423.643C284.452 414.096 280.373 400.557 276.151 389.939C277.409 389.786 278.776 389.545 280.219 389.173C285.009 387.959 287.743 386.089 293.342 383.104C295.212 382.098 297.651 380.84 300.626 379.44Z" fill="#D8AD8F"/>
<path d="M307.767 206.261C306.279 206.501 304.344 206.775 302.091 206.971C296.721 207.453 292.424 207.803 287.185 206.523C285.512 206.108 286.453 206.414 284.047 205.233C287.579 202.75 290.674 202.192 292.172 202.028C297.881 201.394 303.141 203.986 307.078 205.911C307.318 206.031 307.548 206.151 307.767 206.261Z" fill="#DED5B3"/>
<path d="M222.5 207.704C224.119 207.978 226.219 208.284 228.668 208.503C234.508 209.049 239.178 209.443 244.864 207.999C246.68 207.529 245.663 207.879 248.276 206.545C244.438 203.745 241.08 203.122 239.451 202.936C233.25 202.225 227.531 205.145 223.255 207.311C222.993 207.442 222.741 207.584 222.511 207.704H222.5Z" fill="#DED5B3"/>
<path d="M229.63 134.139C226.962 131.066 217.164 135.123 211.652 138.513C208.809 140.263 198.277 146.748 195.128 158.93C192.897 167.559 197.009 168.816 197.556 188.577C197.807 197.895 197.895 202.663 195.609 208.502C192.066 217.579 187.298 218.06 187.342 223.572C187.429 232.835 201.011 241.911 204.839 244.47C209.115 247.336 213.139 249.151 214.561 253.7C215.95 258.14 213.938 262.252 214.561 262.449C215.315 262.689 219.908 257.068 219.416 250.78C218.716 241.704 208.142 240.304 206.293 230.855C205.309 225.814 208.01 224.677 211.149 213.839C212.297 209.869 215.37 198.988 214.55 187.112C213.456 171.168 206.239 165.951 210.176 159.412C213.194 154.392 218.203 156.175 224.272 149.208C228.449 144.408 231.938 136.818 229.62 134.139H229.63Z" fill="#F7CE84"/>
<path d="M266.09 132.684C265.292 135.156 257.484 132.05 249.074 135.112C235.547 140.044 232.758 156.492 229.63 155.529C226.831 154.665 225.289 140.285 233.523 131.23C239.494 124.657 249.249 122.372 256.85 124.909C261.847 126.582 266.757 130.607 266.079 132.684H266.09Z" fill="#C5A270"/>
<path d="M278.721 193.597L300.757 189.868L317.609 190.677L303.185 184.356L278.721 188.249V193.597Z" fill="#63472B"/>
<path d="M216.507 190.513L222.5 185.395L251.185 187.44V193.597L229.893 190.36L216.507 190.513Z" fill="#63472B"/>
<path d="M233.031 210.449C237.909 226.481 244.175 232.069 249.315 234.027C251.633 234.912 256.084 235.94 257.331 239.374C258.534 242.699 255.822 245.717 257.812 249.337C258.741 251.032 260.415 252.322 260.972 252.005C261.639 251.633 260.425 249.151 259.999 245.684C259.408 240.862 260.929 238.784 260.972 235.962C261.082 229.357 253.066 225.825 248.823 220.893C244.426 215.786 241.452 206.118 247.368 186.139L233.031 210.438V210.449Z" fill="#C5A270"/>
<path d="M282.593 259.234C279.717 262.361 274.511 266.604 266.9 268.125C259.223 269.666 253.547 268.409 251.502 267.479C243.694 263.914 242.6 259.945 241.485 257.67C243.114 256.576 245.367 255.45 248.309 254.728C253.602 253.438 257.692 254.87 260.273 256.292C261.661 255.745 263.225 255.275 264.953 255.002C272.291 253.831 278.59 256.653 282.593 259.234Z" fill="#98685D"/>
<path d="M235.306 257.593C240.227 257.703 244.131 258.326 246.811 258.895C250.365 259.638 251.819 260.273 255.231 260.677C257.812 260.983 258.928 260.852 264.461 260.677C275.353 260.338 276.6 260.688 281.477 260.032C284.824 259.584 287.492 258.971 289.089 258.578" stroke="#7C583E" stroke-miterlimit="10" stroke-linecap="round"/>
<mask id="mask0_316_198" style="mask-type:luminance" maskUnits="userSpaceOnUse" x="284" y="201" width="24" height="7">
<path d="M307.767 206.261C306.279 206.501 304.344 206.775 302.091 206.971C296.721 207.453 292.424 207.803 287.185 206.523C285.512 206.108 286.453 206.414 284.047 205.233C287.579 202.75 290.674 202.192 292.172 202.028C297.881 201.394 303.141 203.986 307.078 205.911C307.318 206.031 307.548 206.151 307.767 206.261Z" fill="white"/>
</mask>
<g mask="url(#mask0_316_198)">
<path d="M295.464 208.94C298.031 208.94 300.111 206.859 300.111 204.292C300.111 201.725 298.031 199.644 295.464 199.644C292.897 199.644 290.816 201.725 290.816 204.292C290.816 206.859 292.897 208.94 295.464 208.94Z" fill="#333823"/>
<path d="M295.464 205.9C296.351 205.9 297.071 205.18 297.071 204.292C297.071 203.404 296.351 202.685 295.464 202.685C294.576 202.685 293.856 203.404 293.856 204.292C293.856 205.18 294.576 205.9 295.464 205.9Z" fill="#231F20"/>
</g>
<path d="M284.047 205.233C287.579 202.75 290.674 202.192 292.172 202.028C297.881 201.394 303.141 203.986 307.078 205.911C307.318 206.031 307.548 206.151 307.767 206.261" stroke="#49331E" stroke-miterlimit="10" stroke-linecap="round"/>
<path d="M281.641 203.483C282.658 202.214 284.484 200.29 287.317 198.945C288.028 198.605 291.243 197.151 297.039 197.643C304.781 198.299 310.763 201.897 314.055 204.281" stroke="#7C583E" stroke-miterlimit="10" stroke-linecap="round"/>
<path d="M248.746 207.365C247.292 206.228 242.765 202.98 236.105 202.827C228.854 202.663 223.878 206.282 222.5 207.365" stroke="#49331E" stroke-miterlimit="10" stroke-linecap="round"/>
<path d="M249.402 204.445C246.92 202.827 244.438 201.208 241.955 199.59" stroke="#7C583E" stroke-miterlimit="10" stroke-linecap="round"/>
<path d="M268.026 124.898C263.904 118.129 254.466 114.957 246.636 115.668C232.999 116.893 223.561 129.95 220.39 140.46C219.767 142.505 216.333 154.589 221.844 165.732C225.136 172.392 228.767 172.939 230.112 178.855C231.873 186.609 226.426 189.07 224.764 199.273C222.84 211.105 226.875 228.165 237.406 235.241C240.84 237.548 244.317 238.357 245.674 242.043C247.861 248.025 241.846 254.531 242.754 255.166C243.716 255.833 252.213 249.807 251.984 242.524C251.787 236.17 245.138 235.405 242.262 227.454C240.796 223.397 242.229 216.912 245.181 204.128C250.103 182.738 250.168 182.727 250.037 181.775C248.243 167.941 234.749 166.476 232.54 151.636C232.452 151.024 230.67 138.032 237.887 132.684C245.083 127.348 258.37 131.722 259.759 132.203C264.942 133.975 267.851 136.424 269.481 135.123C271.329 133.647 270.159 128.419 268.026 124.92V124.898Z" fill="#F7CE84"/>
<path d="M266.9 385.433C265.795 387.555 263.477 388.528 261.694 387.609C260.47 386.986 259.956 385.499 259.901 384.427C259.835 383.268 260.295 382.404 260.47 382.109C261.388 380.523 263.761 378.937 265.664 379.922C267.447 380.84 267.993 383.301 266.9 385.433Z" stroke="#231F20" stroke-miterlimit="10"/>
<path d="M255.997 384.329C252.814 384.81 248.921 384.843 243.486 383.476C238.97 382.338 237.559 381.748 235.175 380.293C235.175 380.282 235.164 380.282 235.164 380.282C234.781 379.484 234.442 378.751 234.125 378.062C235.448 377.877 236.925 377.188 237.493 375.941C238.182 374.41 236.892 373.262 235.623 369.467C234.912 367.334 234.814 366.197 234.683 365.093C235.667 364.196 236.247 363.365 236.575 362.654C238.86 363.988 241.211 365.453 243.606 367.072C247.193 369.489 250.474 371.949 253.46 374.366C254.367 375.099 255.242 375.831 256.095 376.553C255.822 378.347 255.69 379.867 255.636 381.048C255.494 383.673 255.69 384.197 255.997 384.329Z" fill="#B0ABA7"/>
<path d="M344.708 320.813C342.368 320.77 340.41 320.551 338.868 320.321C333.608 319.523 331.596 318.254 328.337 319.348C324.936 320.485 322.924 323.285 321.207 325.658C320.07 327.255 319.239 328.753 318.604 330.131C318.386 329.518 318.167 328.895 317.97 328.25C316.953 325.024 315.914 320.66 315.827 308.707C318.036 309.681 320.726 310.829 323.799 312.054C335.424 316.702 336.966 316.33 341.941 319.184C342.794 319.676 343.735 320.212 344.708 320.813Z" fill="#B0ABA7"/>
<path d="M229.828 322.858C229.653 326.467 229.15 328.184 228.821 329.201C227.772 332.427 225.595 337.294 220.663 342.324C217.568 340.618 214.2 339.929 210.034 339.546C210.58 336.408 210.996 333.772 211.28 331.476C211.357 330.896 211.466 329.988 211.882 329.092C212.101 328.611 212.418 328.129 212.866 327.703C214.124 326.522 215.786 326.423 216.387 326.369C218.651 326.183 222.566 325.33 229.828 322.858Z" fill="#B0ABA7"/>
<path d="M302.004 371.818C302.004 371.818 301.993 371.884 301.982 371.916C301.873 372.343 301.785 372.737 301.709 373.098C297.892 374.858 294.819 376.444 292.577 377.647C286.978 380.632 284.233 382.513 279.454 383.727C277.431 384.23 275.561 384.493 273.921 384.624C273.746 384.241 273.582 383.869 273.407 383.508C274.621 383.41 276.206 383.202 278.011 382.765C279.706 382.36 281.773 381.704 285.731 379.79C290.565 377.439 291.779 376.313 295.049 374.683C295.431 374.486 295.847 374.29 296.295 374.082C298.548 373.043 300.528 372.31 302.004 371.818Z" fill="#F7CE84"/>
<path d="M444.771 364.688C443.491 363.059 436.897 353.752 424.682 349.454C422.801 348.798 421.368 348.459 420.789 348.328C412.051 346.25 391.349 340.815 355.152 331.017C355.666 331.968 356.103 332.974 356.475 334.068C358.728 340.771 356.902 347.027 356.792 347.027C356.705 347.027 357.7 342.674 355.666 338.114C355.152 336.966 354.518 335.97 353.829 335.107C353.665 334.888 353.49 334.669 353.304 334.472C353.172 334.319 353.041 334.177 352.899 334.035C352.899 334.024 352.888 334.013 352.866 334.002C352.669 333.794 352.473 333.597 352.276 333.411C352.079 333.226 351.882 333.051 351.685 332.876C351.171 332.427 350.657 332.044 350.187 331.716C349.356 331.137 348.656 330.743 348.208 330.503C343.374 327.856 337.097 327.2 336.266 328.884C335.905 329.595 336.845 330.109 336.911 331.64C336.998 333.597 335.555 334.964 332.044 338.442C329.868 340.596 328.392 342.084 327.462 343.177C326.905 343.844 326.533 344.358 326.325 344.807C326.063 345.321 326.03 345.736 326.139 346.141C326.467 347.322 327.965 348.055 327.758 349.542C327.681 350.078 327.408 350.449 327.309 350.592C325.931 352.571 323.974 358.094 320.507 363.879C315.498 372.223 297.848 396.938 291.669 407.294C289.854 410.345 288.301 413.363 286.978 416.393V416.414C285.917 418.809 285.009 421.215 284.222 423.643C280.187 435.946 279.093 448.883 277.737 464.969C275.856 487.246 279.52 487.399 279.684 521.027C279.782 543.981 279.87 562.933 275.791 587.451C275.572 588.785 275.331 590.108 275.102 591.431C281.16 591.803 287.262 591.989 293.419 591.989C297.312 591.989 301.194 591.913 305.044 591.759C314.427 581.622 324.247 569.713 333.794 555.693C357.558 520.775 380.129 481.822 380.129 481.822C388.954 466.588 402.919 441.72 419.006 442.617C423.949 442.89 429.953 445.646 431.812 446.543C441.326 451.168 446.018 457.774 450.523 462.946C452.973 465.768 455.707 468.327 459.075 471.039C464.488 475.391 471.542 480.148 481.745 487.005C488.055 491.237 496.235 496.366 506.252 501.681C524.46 482.85 540.186 461.612 552.915 438.483C476.802 390.759 449.922 371.249 444.771 364.688ZM287.864 455.083C289.69 455.083 291.177 457.052 291.177 459.458C291.177 461.864 289.69 463.832 287.864 463.832C286.037 463.832 284.539 461.875 284.539 459.458C284.539 457.041 286.026 455.083 287.864 455.083ZM288.465 553.189C286.3 553.189 284.539 551.428 284.539 549.263C284.539 547.098 286.3 545.326 288.465 545.326C290.63 545.326 292.402 547.087 292.402 549.263C292.402 551.439 290.641 553.189 288.465 553.189Z" fill="#E2E3E8"/>
<path d="M356.792 347.027C356.705 347.027 357.7 342.663 355.666 338.103C353.61 333.521 349.607 331.257 348.208 330.502C343.374 327.845 337.097 327.189 336.266 328.873C335.905 329.595 336.845 330.098 336.911 331.629C336.998 333.586 335.555 334.953 332.045 338.431C328.556 341.898 326.894 343.625 326.325 344.796C326.063 345.321 326.03 345.736 326.139 346.141C326.467 347.311 327.965 348.054 327.758 349.531C327.681 350.067 327.408 350.449 327.309 350.592C325.931 352.571 323.974 358.083 320.507 363.868C315.499 372.212 297.848 396.938 291.669 407.283C289.854 410.334 288.301 413.352 286.978 416.382C288.345 409.055 290.106 403.302 291.669 399.037C293.124 395.024 295.158 390.223 297.017 382.502C297.312 381.278 297.531 380.282 297.695 379.44C298.253 376.63 298.275 375.46 298.778 373.098C298.854 372.737 298.942 372.343 299.051 371.916C299.051 371.884 299.051 371.851 299.073 371.818C299.139 371.556 299.204 371.282 299.281 370.998C301.195 363.605 303.863 358.465 307.548 351.401C313.344 340.235 314.416 341.296 316.778 334.702C317.248 333.4 317.751 331.859 318.55 330.098C319.184 328.72 320.015 327.222 321.152 325.636C322.869 323.252 324.882 320.452 328.283 319.315C331.542 318.222 333.554 319.49 338.814 320.299C340.356 320.518 342.313 320.737 344.654 320.791C348.339 323.044 352.56 326.161 355.152 331.006C355.666 331.957 356.103 332.963 356.475 334.057C358.728 340.76 356.902 347.027 356.792 347.027Z" fill="white"/>
<defs>
<linearGradient id="paint0_linear_316_198" x1="327.134" y1="377.428" x2="231.074" y2="216.158" gradientUnits="userSpaceOnUse">
<stop offset="0.05" stop-color="#B27E5B"/>
<stop offset="0.85" stop-color="#765238"/>
</linearGradient>
<linearGradient id="paint1_linear_316_198" x1="261.038" y1="276.501" x2="356.256" y2="104.175" gradientUnits="userSpaceOnUse">
<stop offset="0.05" stop-color="#B27E5B"/>
<stop offset="0.85" stop-color="#765238"/>
</linearGradient>
<linearGradient id="paint2_linear_316_198" x1="185.69" y1="227.881" x2="297.05" y2="127.315" gradientUnits="userSpaceOnUse">
<stop offset="0.05" stop-color="#B27E5B"/>
<stop offset="0.85" stop-color="#765238"/>
</linearGradient>
<linearGradient id="paint3_linear_316_198" x1="237.231" y1="425.196" x2="219.482" y2="345.08" gradientUnits="userSpaceOnUse">
<stop offset="0.05" stop-color="#D8AD8F"/>
<stop offset="0.85" stop-color="#765238"/>
</linearGradient>
<linearGradient id="paint4_linear_316_198" x1="210.154" y1="558.93" x2="163.742" y2="256.937" gradientUnits="userSpaceOnUse">
<stop offset="0.42" stop-color="#D8AD8F"/>
<stop offset="0.53" stop-color="#D4AA8C"/>
<stop offset="0.62" stop-color="#CBA183"/>
<stop offset="0.69" stop-color="#BA9275"/>
<stop offset="0.76" stop-color="#A37C60"/>
<stop offset="0.82" stop-color="#866146"/>
<stop offset="0.85" stop-color="#765238"/>
</linearGradient>
</defs>
</svg>
