<?xml version="1.0" encoding="UTF-8"?>
<svg id="Layer_2" data-name="Layer 2" xmlns="http://www.w3.org/2000/svg" xmlns:xlink="http://www.w3.org/1999/xlink" viewBox="0 0 588 588">
  <defs>
    <style>
      .cls-1 {
        fill: #27351a;
      }

      .cls-1, .cls-2, .cls-3, .cls-4, .cls-5, .cls-6, .cls-7, .cls-8, .cls-9, .cls-10, .cls-11, .cls-12, .cls-13, .cls-14, .cls-15, .cls-16, .cls-17, .cls-18, .cls-19, .cls-20, .cls-21, .cls-22, .cls-23, .cls-24, .cls-25 {
        stroke-width: 0px;
      }

      .cls-26 {
        stroke: #231f20;
      }

      .cls-26, .cls-27, .cls-11, .cls-28 {
        fill: none;
      }

      .cls-26, .cls-27, .cls-28 {
        stroke-miterlimit: 10;
      }

      .cls-2 {
        fill: #ded5b3;
      }

      .cls-3 {
        fill: url(#linear-gradient);
      }

      .cls-4 {
        fill: #8e6649;
      }

      .cls-5 {
        fill: #f7ce84;
      }

      .cls-27 {
        stroke: #49331e;
      }

      .cls-27, .cls-28 {
        stroke-linecap: round;
      }

      .cls-6 {
        fill: #e2e3e8;
      }

      .cls-7 {
        fill: #d4d5d8;
      }

      .cls-8 {
        fill: url(#linear-gradient-5);
      }

      .cls-9 {
        fill: #333823;
      }

      .cls-10 {
        fill: #eab764;
      }

      .cls-12 {
        fill: #c5a270;
      }

      .cls-13 {
        fill: #b0aba7;
      }

      .cls-14 {
        fill: #98685d;
      }

      .cls-15 {
        fill: #fff;
      }

      .cls-16 {
        fill: url(#linear-gradient-2);
      }

      .cls-17 {
        fill: #cb964f;
      }

      .cls-18 {
        fill: #11151b;
      }

      .cls-19 {
        fill: url(#linear-gradient-3);
      }

      .cls-20 {
        fill: #231f20;
      }

      .cls-29 {
        clip-path: url(#clippath);
      }

      .cls-21 {
        fill: #63472b;
      }

      .cls-22 {
        fill: #d8ad8f;
      }

      .cls-23 {
        fill: #b08a5a;
      }

      .cls-24 {
        fill: url(#linear-gradient-4);
      }

      .cls-25 {
        fill: #ae886d;
      }

      .cls-28 {
        stroke: #7c583e;
      }
    </style>
    <linearGradient id="linear-gradient" x1="326.64" y1="375.04" x2="230.98" y2="214.46" gradientUnits="userSpaceOnUse">
      <stop offset=".05" stop-color="#b27e5b"/>
      <stop offset=".85" stop-color="#765238"/>
    </linearGradient>
    <linearGradient id="linear-gradient-2" x1="261.01" y1="274.74" x2="355.67" y2="103.43" xlink:href="#linear-gradient"/>
    <linearGradient id="linear-gradient-3" x1="185.72" y1="226.45" x2="296.59" y2="126.32" xlink:href="#linear-gradient"/>
    <linearGradient id="linear-gradient-4" x1="237.01" y1="422.35" x2="219.37" y2="342.73" gradientUnits="userSpaceOnUse">
      <stop offset=".05" stop-color="#d8ad8f"/>
      <stop offset=".85" stop-color="#765238"/>
    </linearGradient>
    <linearGradient id="linear-gradient-5" x1="209.89" y1="555.18" x2="163.79" y2="255.21" gradientUnits="userSpaceOnUse">
      <stop offset=".42" stop-color="#d8ad8f"/>
      <stop offset=".53" stop-color="#d4aa8c"/>
      <stop offset=".62" stop-color="#cba183"/>
      <stop offset=".69" stop-color="#ba9275"/>
      <stop offset=".76" stop-color="#a37c60"/>
      <stop offset=".82" stop-color="#866146"/>
      <stop offset=".85" stop-color="#765238"/>
    </linearGradient>
    <clipPath id="clippath">
      <path class="cls-11" d="m307.52,204.87c-1.49.24-3.42.51-5.67.71-5.37.48-9.66.83-14.89-.45-1.67-.41-.73-.11-3.14-1.28,3.53-2.47,6.62-3.02,8.12-3.18,5.7-.63,10.96,1.94,14.89,3.86.24.12.47.24.69.35Z"/>
    </clipPath>
  </defs>
  <circle class="cls-1" cx="294" cy="294" r="294"/>
  <path class="cls-10" d="m277.53,113.56c3.82-2.67,9.98-6.03,17.48-5.79,4.62.15,11.62,1.72,27.2,17.38,12.18,12.25,12.8,16.22,32.05,38.62,9.35,10.88,13.03,14.39,16.51,17.38,10.91,9.35,13.84,8.33,16.51,13.52,5.22,10.15-4.43,17.07-1.94,34.76,1.45,10.3,4.92,9.37,6.8,20.28.67,3.88,4.18,24.25-6.8,35.72-7.16,7.49-13.44,3.82-32.05,13.52-8.52,4.44-13.58,8.53-16.51,10.62-28.88,20.57-107.86,29.35-126.27,0-5.4-8.62-2.96-16.32-11.66-23.17-9.2-7.25-17.06-2.67-30.11-10.62-2.94-1.79-15.94-9.71-15.54-19.31.36-8.69,11.32-9.22,15.54-21.24,3.31-9.43-2.41-11.99-.97-26.07.87-8.48,4.14-15.31,10.68-28.97,7.3-15.25,10.17-16.47,11.66-25.1,1.97-11.46-2.22-14.37.97-20.28,4.38-8.12,14-5.79,32.05-12.55,22.04-8.25,24.6-18.04,36.91-17.38,6.26.34,6.72-5.29,17.48,8.69h0Z"/>
  <path class="cls-23" d="m417.88,265.99c3.94,27.12-46.33,53.62-64.59,63.24-22.51,11.86-33.76,17.79-44.19,15.45-40.85-9.18-43.34-102.41-45.17-170.9-.11-4.2-.65-34.46,12.63-42,1.65-.94,6.8-3.91,12.14-2.41,4.43,1.24,4.56,4.28,9.71,6.76,6.94,3.33,10.19-.5,15.54,2.9,3.88,2.46,6.78,7.41,7.28,12.07.44,4.04-1.12,6,.49,9.17,1.46,2.88,3.39,2.52,5.34,5.31,2.74,3.9.53,6.84,1.94,11.59.38,1.27,1.5,4.27,11.66,11.59,11.09,7.99,12.11,6.11,15.05,9.66,6.61,7.96-.55,15.03,5.34,27.03,3.54,7.21,10.68,13.96,18.94,15.45,5.78,1.04,7.62-1.3,12.63-.97,11.39.76,23.54,14.3,25.25,26.07Z"/>
  <path class="cls-21" d="m153.2,275.17c1.34-2.42,5.71-1.27,15.54-7.24,4.44-2.7,8.92-5.48,12.14-10.62,2.88-4.6,1.97-6.64,4.37-14.48,2.93-9.58,8.04-18.83,9.71-18.34,1.47.43-.95,7.99,0,20.76.66,8.88,1.17,14.66,5.34,19.31,6.33,7.05,17.17,7.15,17.48,6.28.28-.79-8.25-1.9-13.11-9.17-2.88-4.3-3.33-9.04-3.89-14.97-.66-6.97-1.02-10.83.49-11.59,4.04-2.03,21.3,18.26,31.57,41.03,7.18,15.92,20.56,54.38,8.26,63.24-19.49,14.03-94.23-52.79-87.9-64.21Z"/>
  <path class="cls-22" d="m307.48,349.58c-3.44,6.75-5.95,11.77-7.76,18.92-.2.8-.36,1.49-.49,2.09-3.71,1.75-6.69,3.32-8.87,4.52-5.44,2.97-8.11,4.83-12.75,6.04-1.97.5-3.78.76-5.38.89-2.32-5.29-4.62-9.25-6.67-10.67-.54-.39-2.51-1.75-4.04-1.6-.16.01-.32.05-.47.12h-.08s-8.62,1.96-8.62,1.96c-2.9-2.41-6.09-4.86-9.57-7.26-2.33-1.61-4.61-3.05-6.83-4.39.29-.61.41-1.12.46-1.51.23-1.9-.6-4.13-10.04-13.65-2.15-2.17-3.23-3.26-3.54-3.5-.77-.58-1.54-1.1-2.34-1.52.26-.27.5-.53.72-.79.14-.15.29-.3.41-.47.11-.1.19-.21.28-.3.09-.11.17-.21.26-.31.18-.21.35-.41.51-.62.34-.41.66-.83.96-1.23.21-.28.43-.59.62-.88.62-.89,1.16-1.76,1.63-2.6.15-.26.3-.52.43-.77,0-.02.01-.04.02-.04.15-.27.29-.54.41-.81.78-1.59,1.31-3,1.69-4.2.22-.73.53-1.77.77-3.61.09-.75.16-1.65.21-2.7.03-.63.05-1.33.05-2.09h0c.05-3.62-.2-8.74-1.03-16.05-.27-2.32-.58-4.86-.98-7.55,3.7,3.7,9.1,5.52,17.33,12.85,9.78,8.72,7.45,10.88,14.48,15.45,10.65,6.92,15.42,1.58,26.13,8.05,9.66,5.84,9.02,12.17,18.57,16.74.69.33,1.93.91,3.53,1.51Z"/>
  <path class="cls-3" d="m318.45,327.87c-.78,1.75-1.26,3.28-1.72,4.57-1.99,5.67-3.03,5.64-6.92,12.69-.61,1.1-1.29,2.38-2.05,3.9-.1.18-.18.36-.28.54-1.59-.6-2.84-1.18-3.53-1.51-9.55-4.57-8.91-10.89-18.57-16.74-10.71-6.47-15.48-1.13-26.13-8.05-7.03-4.56-4.71-6.72-14.48-15.45-8.23-7.33-13.63-9.15-17.33-12.85-.4-2.8-.88-5.79-1.45-8.94,1.88.99,4.18,2.04,6.99,3.13.96.35,2.07.78,3.33,1.24.62.24,1.28.46,1.96.7.51.17,1.03.37,1.56.53.28.1.54.18.83.27.28.1.55.18.84.27.57.17,1.16.37,1.76.53,1.9.56,3.95,1.11,6.14,1.61.24.04.5.1.75.15.16.05.33.08.5.12.35.08.71.14,1.08.21.54.11,1.11.22,1.67.31h.01c6.02,1.05,12.83,1.59,20.03.85,7.03-.7,14.43-2.59,21.87-6.32,5.41-2.7,14.97-7.49,21.75-17.14-.62,8.39-.95,15.51-1.13,21.02-.17,5.17-.22,9.47-.19,13.09.04,5.3.27,9.11.58,11.98.4,3.53.96,5.65,1.5,7.43.19.63.4,1.25.62,1.86Z"/>
  <path class="cls-13" d="m458.71,467.87c-5.93-1.28-13.08-2.68-19.15-3.41-2.79-.34-7.4-.77-8.49,1.28-.43.79-.19,1.66-.09,2.05,1.04,4.06-.14,8.37,0,12.56.45,13.46-12.62,43.45-12.62,43.45-4.38,10.04-9.62,24.15-13.68,42.59-31.01,12.57-64.66,20.04-99.87,21.39,9.38-10.07,19.19-21.9,28.73-35.82,23.74-34.68,46.3-73.37,46.3-73.37,8.82-15.13,22.77-39.83,38.85-38.94,4.94.27,10.94,3.01,12.8,3.9,9.51,4.59,14.19,11.16,18.7,16.29,2.45,2.8,5.18,5.34,8.54,8.04Z"/>
  <path class="cls-22" d="m238.19,419.99c-.19.45-.54,1.33-1.1,2.34-1.1,1.99-3.02,4.5-6.02,5.39-5.19,1.55-10.4-2.72-16.51-7.88,0,0-13.75-11.62-23.31-33.8,0,0-1.72-3.95-2.27-9.49-.09-.87-.13-1.61-.12-2.25,0-1.4.21-2.35.61-3.22.5-1.13,1.23-1.94,2.04-2.6h0c.87-.73,1.84-1.26,2.73-1.84,0,0,6.36-4.08,16.99-20.27.03-.05.11-.15.23-.27,1.26-1.11,4.4.83,7.7,2.4,6.88,3.29,7.97,1.96,10.69,4.54,2.24,2.15,3.23,4.7,3.8,6.2.59,1.5.72,2.42.84,3.38.13,1.1.23,2.23.94,4.34,1.27,3.77,2.56,4.91,1.87,6.43-.57,1.24-2.04,1.92-3.37,2.11-.24.04-.47.07-.69.07-3.64.08-6.08-4.03-6.87-5.39-1.65-2.77-1.89-6.26-1.88-8.26-1.03.63-2.24.9-3.46.7-1.43-.24-2.67-1.11-3.44-2.29-.27,1.28-.95,2.97-2.55,4.3-.47.39-.96.71-1.45.95-.5.25-1.01.42-1.5.55.31,1.61.71,3.92,1.01,6.22.11.87.26,2.13-.09,3.7-.03.14-.05.27-.1.39-.11.45-.24.84-.36,1.13.42.24.84.53,1.27.89,2.81,2.35,3.44,5.75,3.73,6.92.75,3.07,3.16,7.44,10.69,12.8,4.6,3.27,4.88,2.4,7.04,4.91,3.51,4.05,5.39,10.83,2.92,16.89Z"/>
  <path class="cls-16" d="m329,225.44c-.24,4.53-.46,8.6-.7,12.3-.39,6.34-.82,11.56-1.46,15.96-.85,5.94-2.1,10.42-4.15,14.23-.89,1.64-1.85,3.16-2.88,4.58-6.97,9.65-16.81,14.44-22.37,17.14-15.48,7.55-30.86,7.56-43.09,5.47,7.28-.3,17.94-1.46,24.79-9.02,2.28-2.51,2.84-4.3,3.86-7.23-1.04.51-2.09.78-3.05.76-2.22-.05-2.5-1.65-6.06-3.99-8.29-5.41-18.67-4.56-21.37-4.34-6.58.54-10.18,2.57-11.41.85-.97-1.37.07-4.38,1.95-5.43,1.77-1,3.35.32,6.8.73,1.08.13,2.21.15,9.59-1.44,6.7-1.46,10.05-2.18,11.29-2.78,5.64-2.7,5.73-5.91,9.47-6.04,4.44-.14,8.51,2.45,10.07,5.92.1.21.19.42.25.64,2.33-3.23,5.85-7.36,13.87-17.86,0,0,11.42-14.94,18.14-33.08.38-1.05,1.64-4.53.32-5.63-2.37-2-9.03,7.11-20.15,7.56-3.92.16-7.82-.78-13.28-2.1-4.25-1.02-5.46-1.67-10.04-2.49-3.98-.71-4.6-.49-5.82-1.29-3.61-2.37-4.41-8.43-3.23-12.87.24-.9,1.86-6.98,6.87-8.93,3.64-1.4,6.89.2,27.2,8.6,3.19,1.33,6.52,2.65,9.71,1.29,3.46-1.48,4.88-5.31,5.51-7.08,3.98-11.25-3.15-23.73-5.51-28.32-6.6-12.85-16.77-19.24-20.07-21.25-4.73-2.89-9.47-4.77-13.32-6.05,1.75.33,3.44.63,5.07.9,7.22,1.22,14.4,3.19,21.36,8.21,10.77,7.74,15.1,18.49,17.48,24.61,4.23,10.87,4.45,19.98,4.86,36.69.19,7.97-.11,13.73-.49,20.76Z"/>
  <path class="cls-19" d="m239.97,152.38c-3.13,5.82-1.4,12.36-.16,17.06,2.69,10.19,8.21,11.61,13.11,24.78,1.7,4.56,2.88,7.83,2.75,12.39-.22,7.57-4.01,17.57-9.71,18.51-5.55.9-8.1-7.61-18.46-9.49-2.95-.54-6.16-1.18-9.39.31-1.79.84-8.95,1.69-13.56,18.09-2.38-14.59-2.21-14.41-3.28-27.42-1.86-22.76,1.28-45.79,14.08-60.83,13.96-16.4,33.92-16.42,51.67-13.87-1.07,1.01-3.1,2.56-6.83,5.18-14.22,9.99-17.8,10.75-20.24,15.28Z"/>
  <path class="cls-22" d="m322.53,212.81c-6.72,18.14-18.14,33.08-18.14,33.08-8.02,10.49-11.54,14.63-13.87,17.86-.07-.22-.15-.43-.25-.64-1.56-3.47-5.64-6.06-10.07-5.92-3.75.13-3.84,3.33-9.47,6.04-1.23.6-4.59,1.33-11.29,2.78-7.39,1.6-8.51,1.58-9.59,1.44-3.44-.41-5.03-1.73-6.8-.73-1.88,1.05-2.92,4.06-1.95,5.43,1.22,1.73,4.83-.3,11.41-.85,2.7-.22,13.08-1.06,21.37,4.34,3.56,2.34,3.85,3.93,6.06,3.99.96.02,2.01-.25,3.05-.76-1.02,2.93-1.57,4.73-3.86,7.23-6.85,7.56-17.52,8.71-24.79,9.02h-.01c-9.24-1.58-16.67-4.34-21-5.95-2.9-1.08-5.26-2.13-7.19-3.12-4.19-2.17-6.4-4.11-7.87-5.57-8.04-8.07-9.05-17.96-11.17-30.9-1.08-6.62-1.91-11.62-2.56-15.54,4.61-16.39,11.77-17.25,13.56-18.09,3.22-1.5,6.44-.86,9.39-.31,10.36,1.88,12.9,10.4,18.46,9.49,5.7-.93,9.5-10.94,9.71-18.51.13-4.56-1.05-7.83-2.75-12.39-4.91-13.16-10.42-14.59-13.11-24.78-1.23-4.7-2.96-11.24.16-17.06,2.44-4.53,6.02-5.29,20.24-15.28,3.73-2.62,5.76-4.17,6.83-5.18h.01c4.76.68,9.36,1.55,13.65,2.34.01,0,.02,0,.02.01,3.85,1.28,8.59,3.16,13.32,6.05,3.3,2.01,13.47,8.4,20.07,21.25,2.36,4.58,9.48,17.06,5.51,28.32-.62,1.77-2.04,5.6-5.51,7.08-3.19,1.36-6.52.03-9.71-1.29-20.3-8.41-23.56-10-27.2-8.6-5.02,1.94-6.63,8.03-6.87,8.93-1.18,4.44-.37,10.5,3.23,12.87,1.22.8,1.85.59,5.82,1.29,4.58.81,5.79,1.47,10.04,2.49,5.45,1.31,9.35,2.26,13.28,2.1,11.12-.45,17.78-9.56,20.15-7.56,1.32,1.1.07,4.57-.32,5.63Z"/>
  <path class="cls-26" d="m283.82,203.84c-.08-.04-.16-.09-.25-.13"/>
  <path class="cls-28" d="m263.77,238.8c-.01-.64.04-2.43,1.3-3.7,1.75-1.77,5.21-1.9,8.09.16"/>
  <path class="cls-28" d="m278.66,227.53c.4.52,2.96,3.94,1.78,7.08-.67,1.78-2.33,2.93-4.37,4.34-1.22.84-2.31,1.41-3.08,1.77"/>
  <path class="cls-26" d="m241.29,255.93l-.13-.26"/>
  <path class="cls-4" d="m335.79,248.53c-.21,2.43-1.84,4.57-4.2,5.39-1.58.55-3.29.43-4.75-.23.64-4.4,1.07-9.61,1.46-15.96,1.05,1.79,2.24,3.66,3.62,5.57,1.29,1.79,2.57,3.56,3.87,5.22Z"/>
  <path class="cls-24" d="m247.9,412.27c-.14,1.85-.43,3.45-3.16,12.56-.21.7-.4,1.35-.59,1.97-1.48-.25-2.91-.81-4.19-1.65-1.25-.83-2.19-1.8-2.88-2.81.57-1.01.92-1.89,1.1-2.34,2.47-6.06.59-12.84-2.92-16.89-2.15-2.51-2.44-1.64-7.04-4.91-7.53-5.36-9.93-9.72-10.69-12.8-.28-1.17-.92-4.57-3.73-6.92-.43-.36-.85-.65-1.27-.89.12-.29.25-.68.36-1.13.59.59,1.31,1.14,2.21,1.54.85.38,1.66.54,2.4.61-.61-1.1-1.21-2.31-1.76-3.67-1.41-3.49-1.97-6.73-2.17-9.35.49-.24.98-.55,1.45-.95,1.6-1.34,2.27-3.02,2.55-4.3.78,1.18,2.01,2.05,3.44,2.29,1.22.21,2.44-.07,3.46-.7-.01,2,.23,5.49,1.88,8.26.8,1.36,3.23,5.46,6.87,5.39.22,0,.45-.02.69-.07.32.68.66,1.41,1.04,2.2,0,0,.01,0,.01.01.6,1.26,1.29,2.64,2.07,4.13,4.71,8.99,6.39,9.81,8.42,15.21.9,2.39,2.96,8.06,2.43,15.21Z"/>
  <path class="cls-7" d="m280.45,461.83c1.36-15.97,2.45-28.82,6.48-41.04-2.7-9.49-6.77-22.93-10.99-33.49-.74-1.87-1.49-3.63-2.23-5.27-.17-.38-.34-.75-.51-1.11-.02-.07-.05-.12-.08-.17-2.19-4.65-4.34-8.09-6.27-9.38-.56-.39-2.58-1.75-4.15-1.6l-.48.12h-.09c-.09.05-.17.09-.25.13-1.85,1.09-.38,4.71-3.04,8.95-.87,1.38-2.34,3.06-3.04,2.76-3.18.48-7.07.51-12.5-.85-4.51-1.13-5.92-1.71-8.3-3.16.6,1.26,1.29,2.64,2.07,4.13,4.71,9,6.39,9.82,8.42,15.21.9,2.39,2.96,8.07,2.43,15.21-.14,1.85-.43,3.45-3.16,12.56-.21.7-.4,1.35-.59,1.97-1.44,4.78-2.29,7.59-3.54,11.32-2.51,7.55-4.11,13.87-7.28,26.55-5.79,23.08-10.25,46.86-14.33,64.45-2.69,11.55-6.71,26.89-12.83,45.06,22.8,7.22,46.8,11.77,71.63,13.28.23-1.31.47-2.62.69-3.95,4.08-24.35,3.99-43.18,3.89-65.98-.16-33.4-3.82-33.55-1.95-55.68Zm-13.76-79c-1.1,2.12-3.42,3.08-5.2,2.16-1.22-.62-1.74-2.1-1.79-3.15-.07-1.15.39-2.02.57-2.31.92-1.56,3.29-3.15,5.19-2.17,1.78.91,2.33,3.36,1.23,5.47Z"/>
  <path class="cls-6" d="m262.12,369.9c-.09.03-.17.08-.25.12-1.85,1.09-.38,4.71-3.04,8.94-.87,1.39-2.34,3.06-3.04,2.77-.31-.13-.5-.65-.36-3.26.05-1.17.19-2.68.46-4.46-.85-.72-1.73-1.44-2.63-2.17l8.86-1.93Z"/>
  <path class="cls-6" d="m159.62,554.88c-7.52-3.89-14.85-8.1-21.97-12.6,3.53-4.59,8.05-10.29,11.03-13.34.4-.42,1.18-1.21,2.43-1.93,1.73-1,3.54-1.43,5.27-1.53-2.34,3.07-3.96,5.02-5.1,6.04-.16.14-.72.63-1.14,1.44-1.79,3.54,1.49,8.49,2.75,10.46,1.89,2.95,4.13,6.78,6.74,11.46Z"/>
  <path class="cls-7" d="m195.45,451.37c-9.93,25.48-16.81,43.09-26.71,56.97-5.52,7.71-9.5,13.3-12.38,17.12h0c-1.73.11-3.54.54-5.27,1.54-1.25.73-2.02,1.51-2.43,1.93-2.97,3.05-7.5,8.74-11.03,13.34-13.54-8.56-26.32-18.17-38.24-28.74-1.65-18.14-3.62-43.82-4.15-73.27-.23-12.71-.15-23.73,3.41-34.23,1.09-3.22,2.51-6.4,4.36-9.55,1.66-2.84,5.86-9.85,13.92-15.76,7.55-5.55,14.3-7.04,20.72-9.02,8.29-2.55,19.61-7.02,32.76-15.4.04.41.1.77.14,1.04.45,2.87,1.75,4.82,4.01,7.84,3.55,4.74,6.03,8.05,7.83,9.92-.01.74.08,1.5.3,2.27.22.77.49,1.33.61,1.58,3.53,7.14,6.68,14.46,10.44,21.47,1.52,2.84,7.16,13.35,8.02,24.62.55,7.23-1.03,12.74-6.32,26.31Z"/>
  <path class="cls-15" d="m229.7,318.59c0,.76-.02,1.44-.05,2.07h0c-7.26,2.47-11.17,3.31-13.43,3.5-.6.05-2.26.15-3.52,1.33-.45.42-.76.9-.98,1.38-.42.89-.52,1.79-.6,2.37-.28,2.28-.7,4.9-1.25,8.02-.58-.05-1.17-.11-1.79-.15.57-3.3.9-5.98,1.1-7.98.12-1.24.2-2.25.79-3.4.01-.03.03-.08.05-.11,1.41-2.57,4.27-3.56,6.93-4.34,2.98-.87,7.26-1.93,12.75-2.67Z"/>
  <path class="cls-8" d="m244.16,426.79c-1.44,4.78-2.29,7.58-3.54,11.31-2.51,7.55-4.11,13.88-7.28,26.55-5.79,23.08-10.25,46.87-14.33,64.46-2.69,11.55-6.71,26.89-12.83,45.05-16.17-5.12-31.73-11.58-46.56-19.27-2.61-4.68-4.85-8.51-6.74-11.46-1.27-1.97-4.55-6.92-2.75-10.46.42-.81.97-1.3,1.14-1.44,1.15-1.02,2.76-2.97,5.1-6.04h0c2.88-3.83,6.86-9.42,12.38-17.13,9.9-13.88,16.77-31.49,26.71-56.97,5.29-13.57,6.86-19.07,6.32-26.31-.86-11.27-6.5-21.79-8.02-24.62-3.76-7.02-6.91-14.34-10.44-21.47-.12-.25-.39-.8-.61-1.58-.22-.77-.31-1.53-.3-2.27.03-3.28,1.95-6.21,3.21-8.71,1.22-2.41,2.03-5.7,3.14-11.33.32-1.63.66-3.45,1.05-5.51,1.46-7.7,1.14-9.85,3.34-11.64.58-.47,2.05-1.51,10.32-1.09,1.64.09,3.17.16,4.6.26h.01c.62.04,1.21.1,1.79.15,4.16.38,7.53,1.06,10.62,2.76.82.43,1.62.95,2.4,1.53.32.24,1.43,1.33,3.64,3.5,9.71,9.53,10.57,11.74,10.33,13.64-.04.39-.17.91-.47,1.52-.33.71-.91,1.53-1.89,2.42-.12-.96-.25-1.88-.84-3.38-.57-1.5-1.56-4.05-3.8-6.2-2.72-2.59-3.8-1.25-10.69-4.54-3.3-1.57-6.45-3.51-7.7-2.4-.12.12-.2.22-.23.27-10.63,16.18-16.99,20.27-16.99,20.27-.9.58-1.86,1.11-2.73,1.82h0c-.81.66-1.54,1.48-2.04,2.61-.4.87-.61,1.81-.61,3.22-.01.64.03,1.38.12,2.25.56,5.54,2.27,9.49,2.27,9.49,9.56,22.18,23.31,33.8,23.31,33.8,6.11,5.16,11.32,9.43,16.51,7.88,3-.89,4.92-3.4,6.02-5.39.7,1.01,1.64,1.99,2.88,2.81,1.28.84,2.71,1.4,4.19,1.65Z"/>
  <path class="cls-25" d="m188.76,355.08c-1.1,5.63-1.91,8.92-3.14,11.33-1.27,2.5-3.18,5.43-3.21,8.71-1.8-1.87-4.28-5.18-7.83-9.92-2.26-3.02-3.56-4.97-4.01-7.84-.04-.27-.1-.63-.14-1.04-.21-1.86-.24-4.88,1.85-7.05,2.95-3.08,8.63-2.9,11.17-.6,1.42,1.29,1.08,2.56,3.16,4.7.81.84,1.53,1.34,2.16,1.71Z"/>
  <path class="cls-18" d="m209.96,325.72c-.59,1.15-.67,2.16-.79,3.4-.21,2-.54,4.68-1.1,7.98h-.01c-1.43-.1-2.96-.17-4.6-.26-8.26-.42-9.74.62-10.32,1.09-2.21,1.79-1.88,3.94-3.34,11.64-.39,2.05-.73,3.88-1.05,5.51-.63-.37-1.35-.87-2.16-1.71-2.08-2.14-1.74-3.41-3.16-4.7-2.54-2.3-8.22-2.49-11.17.6-2.09,2.17-2.05,5.19-1.85,7.05-13.15,8.39-24.47,12.85-32.76,15.4-6.41,1.98-13.17,3.46-20.72,9.02-8.06,5.91-12.26,12.93-13.92,15.76-1.85,3.15-3.27,6.33-4.36,9.55-2.44-9.17-3.32-20.9,2.09-32.39,8.23-17.48,27.54-27.06,32.06-27.64.33-.04,1.52-.15,2.67-.97,2.97-2.09,2.5-6.63,2.92-8.93,1.7-9.54,24.39-13.38,34.47-15.09,10.05-1.69,17.33-2.85,26.48-.12,4.29,1.28,7.86,3.08,10.62,4.81Z"/>
  <path class="cls-17" d="m301.47,370.58c-.5,2.35-.52,3.51-1.08,6.3-2.97,1.38-5.41,2.64-7.28,3.63-5.59,2.97-8.33,4.82-13.11,6.03-1.44.38-2.81.61-4.06.76-.74-1.87-1.49-3.63-2.23-5.27,1.64-.13,3.51-.39,5.53-.89,4.78-1.21,7.52-3.07,13.11-6.04,2.24-1.19,5.31-2.77,9.12-4.52Z"/>
  <path class="cls-22" d="m300.39,376.88c-.16.85-.38,1.82-.68,3.04-1.86,7.67-3.89,12.44-5.34,16.42-1.56,4.25-3.32,9.96-4.69,17.24v.02c-1.06,2.38-1.97,4.77-2.75,7.18-2.7-9.48-6.77-22.93-10.99-33.48,1.26-.15,2.62-.39,4.06-.76,4.79-1.21,7.52-3.06,13.11-6.03,1.87-1,4.31-2.25,7.28-3.64Z"/>
  <path class="cls-2" d="m307.52,204.87c-1.49.24-3.42.51-5.67.71-5.37.48-9.66.83-14.89-.45-1.67-.41-.73-.11-3.14-1.28,3.53-2.47,6.62-3.02,8.12-3.18,5.7-.63,10.96,1.94,14.89,3.86.24.12.47.24.69.35Z"/>
  <path class="cls-2" d="m222.33,206.3c1.61.27,3.72.58,6.16.8,5.83.54,10.5.93,16.18-.5,1.82-.46.8-.12,3.41-1.44-3.84-2.78-7.2-3.4-8.82-3.58-6.2-.71-11.91,2.19-16.18,4.34-.26.13-.51.27-.75.39Z"/>
  <path class="cls-5" d="m229.45,133.23c-2.67-3.06-12.46.97-17.97,4.34-2.85,1.74-13.37,8.17-16.51,20.28-2.23,8.57,1.88,9.82,2.43,29.45.26,9.25.34,13.99-1.94,19.79-3.54,9.01-8.31,9.49-8.26,14.97.09,9.2,13.66,18.22,17.48,20.76,4.28,2.84,8.29,4.65,9.71,9.17,1.38,4.41-.62,8.49,0,8.69.76.24,5.34-5.34,4.86-11.59-.7-9.01-11.27-10.4-13.11-19.79-.98-5.01,1.72-6.14,4.86-16.9,1.15-3.95,4.21-14.75,3.4-26.55-1.09-15.83-8.31-21.02-4.37-27.52,3.02-4.98,8.03-3.22,14.08-10.14,4.17-4.77,7.66-12.31,5.34-14.97Z"/>
  <path class="cls-12" d="m265.87,131.78c-.8,2.45-8.6-.63-17,2.41-13.52,4.9-16.3,21.24-19.43,20.28-2.8-.86-4.34-15.14,3.89-24.14,5.97-6.53,15.72-8.8,23.31-6.28,4.99,1.66,9.9,5.66,9.23,7.72Z"/>
  <polygon class="cls-21" points="278.5 192.29 300.51 188.59 317.35 189.39 302.94 183.12 278.5 186.98 278.5 192.29"/>
  <polygon class="cls-21" points="216.34 189.23 222.33 184.14 250.98 186.18 250.98 192.29 229.71 189.07 216.34 189.23"/>
  <path class="cls-12" d="m232.85,209.03c4.87,15.93,11.14,21.48,16.27,23.41,2.32.87,6.77,1.9,8.01,5.31,1.21,3.3-1.51,6.3.49,9.9.93,1.68,2.6,2.97,3.16,2.66.67-.37-.55-2.84-.97-6.28-.59-4.79.92-6.85.97-9.66.11-6.56-7.9-10.07-12.14-14.97-4.39-5.07-7.37-14.68-1.46-34.52l-14.33,24.14Z"/>
  <path class="cls-14" d="m282.37,257.48c-2.87,3.11-8.08,7.32-15.68,8.83-7.67,1.53-13.34.28-15.39-.64-7.8-3.54-8.89-7.48-10.01-9.74,1.63-1.09,3.88-2.2,6.82-2.92,5.29-1.28,9.38.14,11.95,1.55,1.39-.54,2.95-1.01,4.68-1.28,7.33-1.16,13.63,1.64,17.63,4.2Z"/>
  <path class="cls-28" d="m235.11,255.85c4.92.11,8.82.73,11.49,1.29,3.55.74,5,1.37,8.42,1.77,2.58.3,3.7.17,9.23,0,10.89-.33,12.13.01,17-.64,3.35-.45,6.01-1.05,7.61-1.45"/>
  <g class="cls-29">
    <ellipse class="cls-9" cx="295.22" cy="202.91" rx="4.64" ry="4.62"/>
    <ellipse class="cls-20" cx="295.22" cy="202.91" rx="1.6" ry="1.59"/>
  </g>
  <path class="cls-27" d="m283.82,203.84c3.53-2.47,6.62-3.02,8.12-3.18,5.7-.63,10.96,1.94,14.89,3.86.24.12.47.24.69.35"/>
  <path class="cls-28" d="m281.41,202.11c1.01-1.26,2.84-3.18,5.67-4.51.71-.33,3.92-1.78,9.71-1.29,7.74.66,13.72,4.23,17,6.6"/>
  <path class="cls-27" d="m248.55,205.97c-1.45-1.13-5.98-4.35-12.63-4.51-7.25-.16-12.22,3.43-13.6,4.51"/>
  <path class="cls-28" d="m249.2,203.07c-2.48-1.61-4.96-3.22-7.45-4.83"/>
  <path class="cls-5" d="m267.81,124.06c-4.12-6.72-13.55-9.87-21.37-9.17-13.63,1.22-23.06,14.19-26.22,24.62-.62,2.04-4.05,14.03,1.46,25.1,3.29,6.61,6.91,7.16,8.26,13.03,1.76,7.7-3.69,10.15-5.34,20.28-1.92,11.75,2.11,28.7,12.63,35.72,3.43,2.29,6.91,3.1,8.26,6.76,2.18,5.94-3.83,12.4-2.91,13.03.97.67,9.45-5.32,9.23-12.55-.19-6.32-6.83-7.07-9.71-14.97-1.47-4.03-.03-10.47,2.91-23.17,4.92-21.24,4.98-21.26,4.86-22.21-1.8-13.74-15.27-15.2-17.48-29.93-.09-.61-1.86-13.51,5.34-18.83,7.19-5.3,20.47-.95,21.85-.48,5.18,1.76,8.09,4.19,9.71,2.9,1.85-1.47.68-6.65-1.46-10.14Z"/>
  <path class="cls-26" d="m266.69,382.83c-1.1,2.11-3.42,3.07-5.2,2.16-1.22-.62-1.74-2.1-1.79-3.16-.07-1.15.39-2.01.57-2.3.92-1.57,3.29-3.15,5.19-2.17,1.78.91,2.33,3.36,1.23,5.47Z"/>
  <path class="cls-13" d="m255.79,381.73c-3.18.48-7.07.51-12.5-.85-4.51-1.13-5.92-1.72-8.3-3.16,0-.01-.01-.01-.01-.01-.38-.79-.72-1.52-1.04-2.2,1.32-.18,2.8-.87,3.37-2.11.69-1.52-.6-2.66-1.87-6.43-.71-2.12-.81-3.25-.94-4.34.98-.89,1.56-1.72,1.89-2.42,2.28,1.33,4.63,2.78,7.03,4.39,3.58,2.4,6.86,4.84,9.85,7.25.91.73,1.78,1.46,2.63,2.17-.27,1.78-.4,3.29-.46,4.46-.14,2.61.05,3.13.36,3.26Z"/>
  <path class="cls-13" d="m344.43,318.65c-2.34-.04-4.29-.26-5.83-.49-5.26-.79-7.27-2.05-10.52-.97-3.4,1.13-5.41,3.91-7.12,6.27-1.14,1.59-1.97,3.07-2.6,4.44-.22-.61-.44-1.23-.63-1.87-1.02-3.2-2.05-7.54-2.14-19.41,2.21.97,4.9,2.11,7.97,3.32,11.62,4.62,13.16,4.25,18.13,7.08.85.49,1.79,1.02,2.76,1.62Z"/>
  <path class="cls-13" d="m229.64,320.68c-.17,3.58-.68,5.29-1.01,6.3-1.05,3.2-3.22,8.04-8.15,13.03-3.09-1.69-6.46-2.38-10.62-2.76.55-3.12.96-5.74,1.25-8.02.08-.58.19-1.48.6-2.37.22-.48.54-.96.98-1.38,1.26-1.17,2.92-1.27,3.52-1.33,2.26-.18,6.17-1.03,13.43-3.49Z"/>
  <path class="cls-5" d="m301.77,369.31s-.01.07-.02.1c-.11.42-.2.81-.27,1.17-3.81,1.75-6.88,3.32-9.12,4.52-5.59,2.97-8.34,4.83-13.11,6.04-2.02.5-3.89.76-5.53.89-.17-.38-.34-.75-.51-1.11,1.21-.1,2.8-.3,4.6-.74,1.69-.4,3.76-1.05,7.71-2.95,4.83-2.34,6.04-3.45,9.31-5.07.38-.2.8-.39,1.25-.6,2.25-1.03,4.23-1.76,5.7-2.25Z"/>
  <path class="cls-6" d="m444.42,362.23c-1.28-1.62-7.87-10.86-20.07-15.13-1.88-.65-3.31-.99-3.89-1.12-8.73-2.06-29.42-7.46-65.58-17.19.51.95.95,1.94,1.32,3.03,2.25,6.66.43,12.87.32,12.87-.09,0,.91-4.32-1.13-8.85-.51-1.14-1.15-2.13-1.84-2.99-.16-.22-.34-.43-.52-.63-.13-.15-.26-.29-.4-.43,0-.01-.01-.02-.03-.03-.2-.21-.39-.4-.59-.59-.2-.18-.39-.36-.59-.53-.51-.45-1.03-.83-1.5-1.15-.83-.58-1.53-.97-1.98-1.21-4.83-2.63-11.1-3.28-11.93-1.61-.36.71.58,1.22.64,2.74.09,1.94-1.35,3.3-4.86,6.76-2.17,2.14-3.65,3.62-4.58,4.7-.56.66-.93,1.17-1.14,1.62-.26.51-.3.92-.19,1.33.33,1.17,1.82,1.9,1.62,3.38-.08.53-.35.9-.45,1.04-1.38,1.97-3.33,7.45-6.8,13.2-5,8.29-22.64,32.84-28.81,43.12-1.81,3.03-3.37,6.03-4.69,9.04v.02c-1.06,2.38-1.97,4.77-2.75,7.18-4.03,12.22-5.12,25.07-6.48,41.05-1.88,22.13,1.78,22.28,1.95,55.68.1,22.8.19,41.62-3.89,65.98-.22,1.33-.46,2.64-.69,3.95,6.05.37,12.15.55,18.3.55,3.89,0,7.77-.08,11.62-.23,9.38-10.07,19.19-21.9,28.73-35.82,23.74-34.68,46.3-73.37,46.3-73.37,8.82-15.13,22.77-39.83,38.85-38.94,4.94.27,10.94,3.01,12.8,3.9,9.51,4.59,14.19,11.16,18.7,16.29,2.45,2.8,5.18,5.34,8.54,8.04,5.41,4.32,12.46,9.05,22.65,15.86,6.3,4.2,14.48,9.3,24.49,14.58,18.19-18.7,33.91-39.8,46.63-62.77h0c-76.05-47.4-102.91-66.78-108.06-73.3Zm-156.78,89.79c1.82,0,3.31,1.96,3.31,4.34s-1.49,4.34-3.31,4.34-3.32-1.94-3.32-4.34,1.49-4.34,3.32-4.34Zm.6,97.44c-2.16,0-3.92-1.75-3.92-3.9s1.76-3.91,3.92-3.91,3.93,1.75,3.93,3.91-1.76,3.9-3.93,3.9Z"/>
  <path class="cls-15" d="m356.51,344.69c-.09,0,.91-4.33-1.13-8.86-2.05-4.55-6.05-6.8-7.45-7.55-4.83-2.64-11.1-3.29-11.93-1.62-.36.72.58,1.22.64,2.74.09,1.94-1.36,3.3-4.86,6.76-3.49,3.44-5.15,5.16-5.71,6.32-.26.52-.29.93-.19,1.34.33,1.16,1.82,1.9,1.62,3.37-.08.53-.35.91-.45,1.05-1.38,1.97-3.33,7.44-6.8,13.19-5,8.29-22.64,32.85-28.81,43.12-1.81,3.03-3.37,6.03-4.69,9.04,1.37-7.28,3.13-12.99,4.69-17.23,1.45-3.99,3.49-8.75,5.34-16.42.3-1.22.51-2.2.68-3.04.56-2.79.58-3.95,1.08-6.3.08-.36.16-.75.27-1.17.01-.03.01-.07.02-.1.07-.26.13-.53.21-.81,1.91-7.34,4.58-12.45,8.26-19.46,5.79-11.09,6.86-10.04,9.22-16.59.47-1.29.97-2.82,1.77-4.57.63-1.37,1.46-2.86,2.6-4.43,1.72-2.37,3.73-5.15,7.12-6.28,3.26-1.09,5.27.17,10.52.98,1.54.22,3.5.43,5.83.49,3.68,2.24,7.9,5.33,10.49,10.15.51.95.95,1.94,1.32,3.03,2.25,6.66.43,12.88.32,12.88Z"/>
</svg>